<?xml version="1.0" encoding="UTF-8"?>
<svg xmlns="http://www.w3.org/2000/svg" version="1.1" viewBox="0 0 776.1 515.5">
  <defs>
    <style>
      .cls-1 {
        font-family: MyriadPro-Regular, 'Myriad Pro';
      }

      .cls-1, .cls-2 {
        font-size: 10.9px;
      }

      .cls-3 {
        fill: #ba9595;
      }

      .cls-4 {
        stroke: #1d1d1b;
      }

      .cls-4, .cls-5 {
        fill: none;
        stroke-miterlimit: 10;
        stroke-width: 2px;
      }

      .cls-6 {
        fill: red;
      }

      .cls-2 {
        font-family: HelveticaNeue-Bold, 'Helvetica Neue';
        font-weight: 700;
      }

      .cls-5 {
        opacity: .5;
        stroke: #c6c6c6;
      }
    </style>
  </defs>
  <!-- Generator: Adobe Illustrator 28.7.1, SVG Export Plug-In . SVG Version: 1.2.0 Build 142)  -->
  <g>
    <g id="graph">
      <line class="cls-5" x1="681.2" y1="363.6" x2="78" y2="363.6"/>
      <line class="cls-5" x1="681.2" y1="304.8" x2="78" y2="304.8"/>
      <line class="cls-5" x1="681.2" y1="245.9" x2="78" y2="245.9"/>
      <line class="cls-5" x1="681.2" y1="186.9" x2="78" y2="186.9"/>
      <line class="cls-5" x1="681.2" y1="125.2" x2="78" y2="125.2"/>
      <line class="cls-5" x1="681.2" y1="66.3" x2="78" y2="66.3"/>
      <line class="cls-4" x1="78.7" y1="34.4" x2="78.7" y2="423.6"/>
      <line class="cls-4" x1="681.2" y1="422.7" x2="78" y2="422.7"/>
      <line class="cls-4" x1="681.2" y1="34.4" x2="681.2" y2="423.6"/>
      <line class="cls-5" x1="379.6" y1="423.5" x2="379.6" y2="35"/>
      <line class="cls-5" x1="180.6" y1="424.6" x2="180.6" y2="34.4"/>
      <line class="cls-5" x1="282.6" y1="423.5" x2="282.6" y2="35"/>
      <line class="cls-5" x1="479.4" y1="424.1" x2="479.4" y2="35.5"/>
      <line class="cls-5" x1="581.4" y1="422.9" x2="581.4" y2="34.4"/>
    </g>
    <g id="chargingStations">
      <text class="cls-2" transform="translate(696.9 22.4)"><tspan x="0" y="0">Charging</tspan><tspan x="3" y="13.1">stations</tspan></text>
      <text class="cls-1" transform="translate(715.1 66.4)"><tspan x="0" y="0">30</tspan></text>
      <text class="cls-1" transform="translate(714.3 127.9)"><tspan x="0" y="0">25</tspan></text>
      <text class="cls-1" transform="translate(714.3 186.9)"><tspan x="0" y="0">20</tspan></text>
      <text class="cls-1" transform="translate(714.8 307.9)"><tspan x="0" y="0">10</tspan></text>
      <text class="cls-1" transform="translate(715.9 363.6)"><tspan x="0" y="0">5</tspan></text>
      <rect class="cls-6" x="129.6" y="313" width="34.9" height="108.7"/>
      <rect class="cls-6" x="231.6" y="203.7" width="34.9" height="218"/>
      <rect class="cls-6" x="331.1" y="313" width="34.9" height="108.7"/>
      <rect class="cls-6" x="429.5" y="282.8" width="34.9" height="138.9"/>
      <rect class="cls-6" x="530.4" y="59.1" width="34.9" height="362.6"/>
      <rect class="cls-6" x="631.3" y="326.6" width="34.9" height="95.1"/>
      <text class="cls-1" transform="translate(714.8 245.9)"><tspan x="0" y="0">15</tspan></text>
      <rect class="cls-3" x="129.6" y="387" width="34.9" height="34.9"/>
      <rect class="cls-3" x="231.6" y="412.9" width="34.9" height="9"/>
      <rect class="cls-3" x="429.5" y="401.5" width="34.9" height="20.3"/>
      <rect class="cls-3" x="530.4" y="402.7" width="34.9" height="20.3"/>
    </g>
    <g id="cars">
      <rect x="94.8" y="62.5" width="34.9" height="359.4"/>
      <text class="cls-2" transform="translate(28.8 24.6)"><tspan x="0" y="0">Cars</tspan></text>
      <text class="cls-1" transform="translate(25.3 66.4)"><tspan x="0" y="0">12000</tspan></text>
      <text class="cls-1" transform="translate(26.5 127.8)"><tspan x="0" y="0">10000</tspan></text>
      <text class="cls-1" transform="translate(28 189.2)"><tspan x="0" y="0">8000</tspan></text>
      <text class="cls-1" transform="translate(28.4 250.2)"><tspan x="0" y="0">6000</tspan></text>
      <text class="cls-1" transform="translate(28.8 307.8)"><tspan x="0" y="0">4000</tspan></text>
      <text class="cls-1" transform="translate(29 367)"><tspan x="0" y="0">2000</tspan></text>
      <rect x="196.8" y="331.6" width="34.9" height="90.3"/>
      <rect x="296.2" y="340.6" width="34.9" height="81.3"/>
      <rect x="394.7" y="381.2" width="34.9" height="40.6"/>
      <rect x="495.6" y="387" width="34.9" height="34.9"/>
      <rect x="596.5" y="397" width="34.9" height="24.8"/>
    </g>
    <g id="nomVilles">
      <text class="cls-1" transform="translate(118.2 454.2)"><tspan x="0" y="0">Lyon</tspan></text>
      <text class="cls-1" transform="translate(204.3 454.2)"><tspan x="0" y="0">Villeurbanne</tspan></text>
      <text class="cls-1" transform="translate(311.8 454.2)"><tspan x="0" y="0">Limonest</tspan></text>
      <text class="cls-1" transform="translate(406.6 454.2)"><tspan x="0" y="0">Saint-Priest</tspan></text>
      <text class="cls-1" transform="translate(505.1 454.3)"><tspan x="0" y="0">Vénissieux</tspan></text>
      <text class="cls-1" transform="translate(594.6 454.3)"><tspan x="0" y="0">Caluire-et-Cuire</tspan></text>
    </g>
    <g id="legende">
      <rect x="185" y="483.5" width="17.4" height="17.4"/>
      <rect class="cls-3" x="429.4" y="483.3" width="17.4" height="17.4"/>
      <text class="cls-2" transform="translate(217.1 495.1)"><tspan x="0" y="0">Cars</tspan></text>
      <text class="cls-2" transform="translate(311.8 495.1)"><tspan x="0" y="0">Charging stations</tspan></text>
      <rect class="cls-6" x="282.6" y="483.3" width="17.4" height="17.4"/>
      <text class="cls-2" transform="translate(464.1 495)"><tspan x="0" y="0">Ultra-fast charging stations</tspan></text>
    </g>
  </g>
</svg>